<mxfile host="65bd71144e">
    <diagram id="QM0pMSm1XtZ88vNDcJNT" name="Page-1">
        <mxGraphModel dx="564" dy="247" grid="1" gridSize="10" guides="1" tooltips="1" connect="1" arrows="1" fold="1" page="1" pageScale="1" pageWidth="850" pageHeight="1100" math="0" shadow="0">
            <root>
                <mxCell id="0"/>
                <mxCell id="1" parent="0"/>
                <mxCell id="2" value="Start" style="rounded=1;whiteSpace=wrap;html=1;shadow=1;" vertex="1" parent="1">
                    <mxGeometry x="240" y="60" width="110" height="30" as="geometry"/>
                </mxCell>
                <mxCell id="3" value="Siapkan sebuah smartphone" style="rounded=0;whiteSpace=wrap;html=1;shadow=1;" vertex="1" parent="1">
                    <mxGeometry x="240" y="130" width="110" height="60" as="geometry"/>
                </mxCell>
                <mxCell id="4" value="Download aplikasi order food online(gojek)" style="rounded=0;whiteSpace=wrap;html=1;shadow=1;" vertex="1" parent="1">
                    <mxGeometry x="240" y="230" width="110" height="60" as="geometry"/>
                </mxCell>
                <mxCell id="14" value="" style="edgeStyle=none;html=1;" edge="1" parent="1" source="5" target="10">
                    <mxGeometry relative="1" as="geometry"/>
                </mxCell>
                <mxCell id="5" value="Masuk ke aplikasi, pilih daftar/masuk jika sudah mempunyai akun" style="shape=parallelogram;perimeter=parallelogramPerimeter;whiteSpace=wrap;html=1;fixedSize=1;shadow=1;" vertex="1" parent="1">
                    <mxGeometry x="210" y="330" width="170" height="70" as="geometry"/>
                </mxCell>
                <mxCell id="6" value="" style="endArrow=classic;html=1;rounded=0;" edge="1" parent="1">
                    <mxGeometry width="50" height="50" relative="1" as="geometry">
                        <mxPoint x="294.5" y="190" as="sourcePoint"/>
                        <mxPoint x="295" y="230" as="targetPoint"/>
                    </mxGeometry>
                </mxCell>
                <mxCell id="7" value="" style="endArrow=classic;html=1;rounded=0;" edge="1" parent="1">
                    <mxGeometry width="50" height="50" relative="1" as="geometry">
                        <mxPoint x="294.5" y="90" as="sourcePoint"/>
                        <mxPoint x="295" y="130" as="targetPoint"/>
                    </mxGeometry>
                </mxCell>
                <mxCell id="8" value="" style="endArrow=classic;html=1;rounded=0;" edge="1" parent="1">
                    <mxGeometry width="50" height="50" relative="1" as="geometry">
                        <mxPoint x="294.5" y="290" as="sourcePoint"/>
                        <mxPoint x="295" y="330" as="targetPoint"/>
                    </mxGeometry>
                </mxCell>
                <mxCell id="9" value="klik tambah dan konfirmasi jumlah pesanan" style="rounded=0;whiteSpace=wrap;html=1;shadow=1;" vertex="1" parent="1">
                    <mxGeometry x="240" y="540" width="110" height="60" as="geometry"/>
                </mxCell>
                <mxCell id="10" value="Cari makanan dan minuman yang akan di pesan" style="rounded=0;whiteSpace=wrap;html=1;shadow=1;" vertex="1" parent="1">
                    <mxGeometry x="235" y="440" width="110" height="60" as="geometry"/>
                </mxCell>
                <mxCell id="11" value="" style="endArrow=classic;html=1;rounded=0;" edge="1" parent="1">
                    <mxGeometry width="50" height="50" relative="1" as="geometry">
                        <mxPoint x="294.5" y="500" as="sourcePoint"/>
                        <mxPoint x="295" y="540" as="targetPoint"/>
                    </mxGeometry>
                </mxCell>
                <mxCell id="12" value="" style="endArrow=classic;html=1;rounded=0;" edge="1" parent="1">
                    <mxGeometry width="50" height="50" relative="1" as="geometry">
                        <mxPoint x="294.5" y="603" as="sourcePoint"/>
                        <mxPoint x="295" y="643" as="targetPoint"/>
                    </mxGeometry>
                </mxCell>
                <mxCell id="13" value="Lakukan pemesanan makanan/minuman" style="rounded=0;whiteSpace=wrap;html=1;shadow=1;" vertex="1" parent="1">
                    <mxGeometry x="240" y="640" width="110" height="60" as="geometry"/>
                </mxCell>
            </root>
        </mxGraphModel>
    </diagram>
</mxfile>